<svg xmlns="http://www.w3.org/2000/svg" viewBox="3 3 18 18" fill="#FFFFFF">
  <path fill-rule="evenodd" d="M6.1 3.4h11.8a2.7 2.7 0 0 1 2.7 2.7v11.8a2.7 2.7 0 0 1-2.7 2.7H6.1a2.7 2.7 0 0 1-2.7-2.7V6.1a2.7 2.7 0 0 1 2.7-2.7zm0 1.3a1.4 1.4 0 0 0-1.4 1.4v11.8a1.4 1.4 0 0 0 1.4 1.4h11.8a1.4 1.4 0 0 0 1.4-1.4V6.1a1.4 1.4 0 0 0-1.4-1.4z" clip-rule="evenodd"/>
  <circle cx="8.2" cy="9" r="0.85"/>
  <rect x="7.35" y="10.6" width="1.7" height="5.3"/>
  <path d="M10.5 10.6h1.6v.8h.1c.3-.5 1-.9 2-.9 2 0 2.6 1.3 2.6 3.1v2.3h-1.7v-2.1c0-1-.2-1.9-1.2-1.9-1.1 0-1.5.8-1.5 1.9v2.1h-1.9z"/>
</svg>
